<?xml version="1.0" standalone="no"?>
<!DOCTYPE svg PUBLIC "-//W3C//DTD SVG 20010904//EN"
 "http://www.w3.org/TR/2001/REC-SVG-20010904/DTD/svg10.dtd">
<svg version="1.0" xmlns="http://www.w3.org/2000/svg"
 width="500.000000pt" height="500.000000pt" viewBox="0 0 500.000000 500.000000"
 preserveAspectRatio="xMidYMid meet">

<g transform="translate(0.000000,500.000000) scale(0.100000,-0.100000)"
fill="#000000" stroke="none">
<path d="M710 3415 l0 -705 35 0 35 0 2 668 3 667 465 1 c256 1 556 2 668 3
l202 1 0 35 0 35 -705 0 -705 0 0 -705z"/>
<path d="M2119 3296 c-66 -18 -104 -49 -136 -114 l-28 -57 0 -235 c0 -246 5
-283 47 -343 30 -43 93 -77 151 -84 45 -5 59 -13 107 -58 46 -43 124 -95 143
-95 2 0 17 34 32 76 23 63 26 78 14 85 -8 4 -23 14 -34 22 -19 14 -19 16 -3
34 10 10 27 41 40 68 20 45 23 70 26 236 6 283 -16 378 -99 434 -67 44 -168
56 -260 31z m187 -67 c38 -12 78 -53 93 -98 14 -43 15 -442 1 -493 -10 -34
-37 -67 -85 -102 -19 -14 -19 -16 24 -60 30 -30 42 -50 37 -61 -5 -15 -9 -14
-36 5 -17 12 -44 39 -61 59 -27 35 -36 39 -90 44 -77 7 -118 32 -147 87 -22
44 -23 52 -20 280 3 207 5 240 22 273 36 73 146 101 262 66z"/>
<path d="M2155 3165 l-25 -24 0 -254 c0 -242 1 -256 21 -281 16 -21 29 -26 64
-26 35 0 48 5 65 27 20 26 21 35 18 286 -3 258 -3 259 -27 278 -33 27 -86 25
-116 -6z m85 -279 c0 -121 -4 -227 -9 -235 -5 -8 -16 -11 -25 -8 -14 6 -16 35
-16 235 0 233 5 267 37 241 10 -9 13 -61 13 -233z"/>
<path d="M2520 2886 l0 -416 115 0 114 0 3 143 3 142 34 -142 34 -143 123 0
c94 0 122 3 119 13 -2 6 -27 92 -55 191 l-50 179 25 23 c40 37 57 90 58 174 1
92 -14 137 -56 178 -59 57 -94 65 -289 70 l-178 4 0 -416z m359 333 c22 -6 52
-25 68 -41 23 -24 28 -39 31 -96 5 -94 -6 -131 -54 -168 l-41 -30 49 -170 c26
-93 48 -173 48 -177 0 -4 -23 -7 -52 -5 l-52 3 -41 165 -41 165 -52 3 -52 3
-2 -168 -3 -168 -52 -3 -53 -3 0 349 c0 192 3 352 8 357 10 11 243 -1 291 -16z"/>
<path d="M2690 3045 l0 -135 55 0 c70 0 112 21 131 65 28 67 10 171 -34 194
-12 6 -50 11 -86 11 l-66 0 0 -135z m117 63 c17 -22 22 -57 12 -93 -6 -19 -13
-35 -17 -35 -4 0 -17 -3 -29 -6 -22 -6 -23 -4 -23 70 0 73 1 76 24 76 13 0 28
-6 33 -12z"/>
<path d="M2687 2296 c-75 -28 -107 -76 -107 -160 0 -30 5 -67 11 -83 5 -15 52
-69 103 -119 94 -91 116 -128 101 -173 -9 -28 -42 -36 -65 -16 -11 10 -22 37
-26 62 l-6 44 -47 -6 c-69 -10 -71 -11 -71 -53 0 -61 37 -123 90 -149 82 -42
194 -19 244 49 11 16 21 49 24 83 7 84 -15 129 -104 215 -99 96 -114 117 -114
154 0 36 15 56 42 56 22 0 38 -29 38 -69 0 -28 3 -30 28 -26 15 2 44 7 65 10
39 6 39 7 32 43 -9 53 -36 103 -67 125 -35 26 -120 32 -171 13z"/>
<path d="M3107 2296 c-73 -26 -107 -78 -107 -163 0 -69 31 -122 116 -198 41
-37 81 -80 89 -96 31 -58 11 -118 -35 -104 -24 8 -35 27 -44 78 l-7 38 -47 -6
c-75 -10 -75 -11 -70 -58 7 -63 35 -114 77 -139 50 -32 166 -33 208 -2 52 38
73 81 73 147 0 81 -31 134 -130 225 -60 55 -81 81 -86 106 -7 40 9 76 35 76
25 0 39 -19 43 -60 3 -33 5 -35 38 -32 19 1 48 5 64 8 27 6 28 8 22 46 -4 22
-15 57 -26 78 -32 62 -125 87 -213 56z"/>
<path d="M1660 1966 l0 -336 75 0 75 0 0 138 0 138 81 11 c134 18 172 63 167
200 -3 88 -16 116 -72 157 -24 19 -45 21 -177 24 l-149 4 0 -336z m247 212
c16 -13 18 -111 3 -139 -8 -14 -21 -19 -55 -19 l-45 0 0 91 0 92 42 -7 c23 -4
48 -12 55 -18z"/>
<path d="M2225 2288 c-2 -7 -29 -148 -60 -313 -31 -165 -59 -310 -62 -322 -5
-22 -3 -23 65 -23 79 0 71 -8 87 98 l7 42 48 0 c54 0 54 0 65 -87 l7 -53 70 0
c61 0 69 2 64 18 -2 9 -31 160 -63 335 l-58 317 -83 0 c-57 0 -84 -4 -87 -12z
m119 -400 c5 -26 3 -28 -29 -28 -40 0 -41 4 -25 110 22 143 22 143 36 40 7
-52 15 -107 18 -122z"/>
<path d="M4130 1625 c0 -525 -3 -665 -12 -666 -7 -1 -218 -3 -468 -4 -250 -2
-546 -3 -657 -4 l-203 -1 0 -35 0 -35 704 0 704 0 6 23 c3 12 6 329 6 705 l0
682 -40 0 -40 0 0 -665z"/>
</g>
</svg>
